<?xml version="1.0" encoding="UTF-8"?>
<!DOCTYPE svg PUBLIC "-//W3C//DTD SVG 1.1//EN" "http://www.w3.org/Graphics/SVG/1.1/DTD/svg11.dtd">
<svg xmlns="http://www.w3.org/2000/svg" version="1.1" width="17px" height="28px" style="shape-rendering:geometricPrecision; text-rendering:geometricPrecision; image-rendering:optimizeQuality; fill-rule:evenodd; clip-rule:evenodd" xmlns:xlink="http://www.w3.org/1999/xlink">
<g><path style="opacity:0.881" fill="#a3a4a3" d="M 11.5,-0.5 C 12.5,-0.5 13.5,-0.5 14.5,-0.5C 14.8417,0.338246 15.5084,0.67158 16.5,0.5C 16.5,2.16667 16.5,3.83333 16.5,5.5C 13.5211,7.81225 10.8544,10.4789 8.5,13.5C 10.8544,16.5211 13.5211,19.1877 16.5,21.5C 16.5,22.8333 16.5,24.1667 16.5,25.5C 15.5,25.8333 14.8333,26.5 14.5,27.5C 13.5,27.5 12.5,27.5 11.5,27.5C 7.83333,23.1667 3.83333,19.1667 -0.5,15.5C -0.5,14.1667 -0.5,12.8333 -0.5,11.5C 3.83333,7.83333 7.83333,3.83333 11.5,-0.5 Z"/></g>
</svg>
