<?xml version="1.0" encoding="UTF-8"?>
<!DOCTYPE svg PUBLIC "-//W3C//DTD SVG 1.1//EN" "http://www.w3.org/Graphics/SVG/1.1/DTD/svg11.dtd">
<svg xmlns="http://www.w3.org/2000/svg" version="1.1" width="17px" height="28px" style="shape-rendering:geometricPrecision; text-rendering:geometricPrecision; image-rendering:optimizeQuality; fill-rule:evenodd; clip-rule:evenodd" xmlns:xlink="http://www.w3.org/1999/xlink">
<g><path style="opacity:0.887" fill="#a4a4a4" d="M 1.5,-0.5 C 2.5,-0.5 3.5,-0.5 4.5,-0.5C 8.16667,3.83333 12.1667,7.83333 16.5,11.5C 16.5,12.8333 16.5,14.1667 16.5,15.5C 12.1667,19.1667 8.16667,23.1667 4.5,27.5C 3.5,27.5 2.5,27.5 1.5,27.5C 1.16667,26.5 0.5,25.8333 -0.5,25.5C -0.5,24.1667 -0.5,22.8333 -0.5,21.5C 2.47893,19.1877 5.1456,16.5211 7.5,13.5C 5.1456,10.4789 2.47893,7.81225 -0.5,5.5C -0.5,3.83333 -0.5,2.16667 -0.5,0.5C 0.491622,0.67158 1.15829,0.338246 1.5,-0.5 Z"/></g>
</svg>
