<?xml version="1.0" standalone="no"?>
<!DOCTYPE svg PUBLIC "-//W3C//DTD SVG 20010904//EN"
 "http://www.w3.org/TR/2001/REC-SVG-20010904/DTD/svg10.dtd">
<svg version="1.0" xmlns="http://www.w3.org/2000/svg"
 width="88.000000pt" height="76.000000pt" viewBox="0 0 88.000000 76.000000"
 preserveAspectRatio="xMidYMid meet">
<metadata>
Created by potrace 1.16, written by Peter Selinger 2001-2019
</metadata>
<g transform="translate(0.000000,76.000000) scale(0.100000,-0.100000)"
fill="#000000" stroke="none">
<path d="M106 576 c-58 -101 -106 -189 -106 -196 0 -6 48 -95 106 -196 l106
-184 228 0 227 0 107 183 c58 101 106 190 106 197 0 7 -48 95 -106 196 l-106
184 -228 0 -228 0 -106 -184z m658 -11 l106 -185 -106 -185 -107 -185 -217 0
-217 0 -107 185 -106 185 106 185 107 185 217 0 217 0 107 -185z"/>
<path d="M342 447 c-39 -40 -72 -79 -72 -88 0 -15 150 -169 165 -169 16 0 165
155 165 172 0 10 -4 18 -8 18 -4 0 -37 -29 -72 -65 -39 -40 -73 -65 -86 -65
-27 0 -128 105 -118 123 30 52 59 59 94 22 l24 -25 43 42 43 42 -32 33 c-18
18 -41 33 -53 33 -12 0 -49 -29 -93 -73z"/>
<path d="M502 410 c-29 -33 -58 -60 -65 -60 -6 0 -23 12 -39 27 -23 22 -30 24
-43 13 -8 -7 -15 -18 -15 -24 0 -14 82 -96 96 -96 5 0 45 36 89 80 78 78 79
80 60 100 -10 11 -21 20 -24 20 -3 0 -30 -27 -59 -60z"/>
</g>
</svg>
