<?xml version="1.0" standalone="no"?>
<!DOCTYPE svg PUBLIC "-//W3C//DTD SVG 20010904//EN"
 "http://www.w3.org/TR/2001/REC-SVG-20010904/DTD/svg10.dtd">
<svg version="1.0" xmlns="http://www.w3.org/2000/svg"
 width="88.000000pt" height="76.000000pt" viewBox="0 0 88.000000 76.000000"
 preserveAspectRatio="xMidYMid meet">
<metadata>
Created by potrace 1.16, written by Peter Selinger 2001-2019
</metadata>
<g transform="translate(0.000000,76.000000) scale(0.100000,-0.100000)"
fill="#000000" stroke="none">
<path d="M106 576 c-58 -101 -106 -189 -106 -196 0 -6 48 -95 106 -196 l106
-184 228 0 227 0 107 183 c58 101 106 190 106 197 0 7 -48 95 -106 196 l-106
184 -228 0 -228 0 -106 -184z m658 -11 l106 -185 -106 -185 -107 -185 -217 0
-217 0 -107 185 -106 185 106 185 107 185 217 0 217 0 107 -185z"/>
<path d="M322 508 c-13 -13 -18 -252 -6 -282 9 -24 239 -24 248 0 12 30 7 269
-6 282 -16 16 -220 16 -236 0z m218 -133 l0 -115 -100 0 -100 0 0 115 0 115
100 0 100 0 0 -115z"/>
</g>
</svg>
