<?xml version="1.0" encoding="UTF-8"?>
<!DOCTYPE svg PUBLIC "-//W3C//DTD SVG 1.1//EN" "http://www.w3.org/Graphics/SVG/1.1/DTD/svg11.dtd">
<svg xmlns="http://www.w3.org/2000/svg" version="1.1" width="37px" height="33px" style="shape-rendering:geometricPrecision; text-rendering:geometricPrecision; image-rendering:optimizeQuality; fill-rule:evenodd; clip-rule:evenodd" xmlns:xlink="http://www.w3.org/1999/xlink">
<g><path style="opacity:0.927" fill="#e6e6e6" d="M 8.5,-0.5 C 14.8333,-0.5 21.1667,-0.5 27.5,-0.5C 30.015,4.54295 33.015,9.20962 36.5,13.5C 36.5,15.1667 36.5,16.8333 36.5,18.5C 33.331,22.833 30.6643,27.4997 28.5,32.5C 21.5,32.5 14.5,32.5 7.5,32.5C 5.33568,27.4997 2.66902,22.833 -0.5,18.5C -0.5,16.8333 -0.5,15.1667 -0.5,13.5C 2.98502,9.20962 5.98502,4.54295 8.5,-0.5 Z"/></g>
<g><path style="opacity:1" fill="#3a3a3a" d="M 21.5,11.5 C 23.6859,11.5106 24.5192,12.5106 24,14.5C 21.6094,17.5968 18.776,19.7635 15.5,21C 13.3619,19.5784 12.1953,17.745 12,15.5C 13.6804,14.3966 15.1804,14.7299 16.5,16.5C 18.5212,15.1455 20.1879,13.4788 21.5,11.5 Z"/></g>
</svg>
